<svg xmlns="http://www.w3.org/2000/svg" xmlns:xlink="http://www.w3.org/1999/xlink" viewBox="0 0 1920 480"><defs><style>.cls-1,.cls-10,.cls-21,.cls-5,.cls-7,.cls-8{fill:none;}.cls-2{fill:#3aa2db;}.cls-3{clip-path:url(#clip-path);}.cls-4{opacity:0.2;}.cls-10,.cls-21,.cls-5,.cls-7,.cls-8{stroke:#fff;stroke-miterlimit:10;}.cls-6{fill:#3994bc;opacity:0.5;}.cls-7{stroke-width:2px;}.cls-10,.cls-21,.cls-8{stroke-width:3px;}.cls-22,.cls-34,.cls-9{fill:#fff;}.cls-10{stroke-dasharray:12.55 12.55;}.cls-11{fill:#dd992b;}.cls-12{fill:#ce7d2f;}.cls-13{fill:#a53f2e;}.cls-14{fill:#527d81;}.cls-15{fill:#cfd0d1;}.cls-16{fill:#63a4a1;}.cls-17{fill:#75bfb8;}.cls-18{fill:#e070c7;}.cls-19{fill:#85d6cb;}.cls-20{fill:#a2dbfa;}.cls-21{stroke-dasharray:12;}.cls-22{font-size:72px;font-family:Baloo2-ExtraBold, Baloo2 ExtraBold;font-weight:800;}.cls-23{letter-spacing:-0.01em;}.cls-24{letter-spacing:0em;}.cls-25{letter-spacing:0em;}.cls-26{letter-spacing:0.02em;}.cls-27{letter-spacing:0em;}.cls-28{letter-spacing:0em;}.cls-29{letter-spacing:-0.01em;}.cls-30{letter-spacing:0.02em;}.cls-31{letter-spacing:0em;}.cls-32{letter-spacing:-0.05em;}.cls-33{letter-spacing:0em;}.cls-34{font-size:36.31px;font-family:Baloo2-Bold, Baloo2 Bold;font-weight:700;}.cls-35{letter-spacing:-0.01em;}</style><clipPath id="clip-path"><rect class="cls-1" x="1" y="3" width="1918" height="480"/></clipPath></defs><title>Mesa de trabajo 1</title><g id="BACKGROUND"><rect class="cls-2" x="1" y="3" width="1918" height="480"/></g><g id="OBJECTS"><g class="cls-3"><g class="cls-4"><rect class="cls-5" x="1" y="3" width="76.72" height="68.57"/><rect class="cls-5" x="77.72" y="3" width="76.72" height="68.57"/><rect class="cls-5" x="154.44" y="3" width="76.72" height="68.57"/><rect class="cls-5" x="231.16" y="3" width="76.72" height="68.57"/><rect class="cls-5" x="307.88" y="3" width="76.72" height="68.57"/><rect class="cls-5" x="384.6" y="3" width="76.72" height="68.57"/><rect class="cls-5" x="461.32" y="3" width="76.72" height="68.57"/><rect class="cls-5" x="538.04" y="3" width="76.72" height="68.57"/><rect class="cls-5" x="614.76" y="3" width="76.72" height="68.57"/><rect class="cls-5" x="691.48" y="3" width="76.72" height="68.57"/><rect class="cls-5" x="768.2" y="3" width="76.72" height="68.57"/><rect class="cls-5" x="844.92" y="3" width="76.72" height="68.57"/><rect class="cls-5" x="921.64" y="3" width="76.72" height="68.57"/><rect class="cls-5" x="998.36" y="3" width="76.72" height="68.57"/><rect class="cls-5" x="1075.08" y="3" width="76.72" height="68.57"/><rect class="cls-5" x="1151.8" y="3" width="76.72" height="68.57"/><rect class="cls-5" x="1228.52" y="3" width="76.72" height="68.57"/><rect class="cls-5" x="1305.24" y="3" width="76.72" height="68.57"/><rect class="cls-5" x="1381.96" y="3" width="76.72" height="68.57"/><rect class="cls-5" x="1458.68" y="3" width="76.72" height="68.57"/><rect class="cls-5" x="1535.4" y="3" width="76.72" height="68.57"/><rect class="cls-5" x="1612.12" y="3" width="76.72" height="68.57"/><rect class="cls-5" x="1688.84" y="3" width="76.72" height="68.57"/><rect class="cls-5" x="1765.56" y="3" width="76.72" height="68.57"/><rect class="cls-5" x="1842.28" y="3" width="76.72" height="68.57"/><rect class="cls-5" x="1" y="71.57" width="76.72" height="68.57"/><rect class="cls-5" x="77.72" y="71.57" width="76.72" height="68.57"/><rect class="cls-5" x="154.44" y="71.57" width="76.72" height="68.57"/><rect class="cls-5" x="231.16" y="71.57" width="76.72" height="68.57"/><rect class="cls-5" x="307.88" y="71.57" width="76.72" height="68.57"/><rect class="cls-5" x="384.6" y="71.57" width="76.72" height="68.57"/><rect class="cls-5" x="461.32" y="71.57" width="76.72" height="68.57"/><rect class="cls-5" x="538.04" y="71.57" width="76.72" height="68.57"/><rect class="cls-5" x="614.76" y="71.57" width="76.72" height="68.57"/><rect class="cls-5" x="691.48" y="71.57" width="76.72" height="68.57"/><rect class="cls-5" x="768.2" y="71.57" width="76.72" height="68.57"/><rect class="cls-5" x="844.92" y="71.57" width="76.72" height="68.57"/><rect class="cls-5" x="921.64" y="71.57" width="76.72" height="68.57"/><rect class="cls-5" x="998.36" y="71.57" width="76.72" height="68.57"/><rect class="cls-5" x="1075.08" y="71.57" width="76.72" height="68.57"/><rect class="cls-5" x="1151.8" y="71.57" width="76.72" height="68.57"/><rect class="cls-5" x="1228.52" y="71.57" width="76.72" height="68.57"/><rect class="cls-5" x="1305.24" y="71.57" width="76.72" height="68.57"/><rect class="cls-5" x="1381.96" y="71.57" width="76.72" height="68.57"/><rect class="cls-5" x="1458.68" y="71.57" width="76.72" height="68.57"/><rect class="cls-5" x="1535.4" y="71.57" width="76.72" height="68.57"/><rect class="cls-5" x="1612.12" y="71.57" width="76.72" height="68.57"/><rect class="cls-5" x="1688.84" y="71.57" width="76.72" height="68.57"/><rect class="cls-5" x="1765.56" y="71.57" width="76.72" height="68.57"/><rect class="cls-5" x="1842.28" y="71.57" width="76.72" height="68.57"/><rect class="cls-5" x="1" y="140.14" width="76.72" height="68.57"/><rect class="cls-5" x="77.72" y="140.14" width="76.72" height="68.57"/><rect class="cls-5" x="154.44" y="140.14" width="76.72" height="68.57"/><rect class="cls-5" x="231.16" y="140.14" width="76.72" height="68.57"/><rect class="cls-5" x="307.88" y="140.14" width="76.72" height="68.57"/><rect class="cls-5" x="384.6" y="140.14" width="76.72" height="68.57"/><rect class="cls-5" x="461.32" y="140.14" width="76.72" height="68.57"/><rect class="cls-5" x="538.04" y="140.14" width="76.72" height="68.57"/><rect class="cls-5" x="614.76" y="140.14" width="76.72" height="68.57"/><rect class="cls-5" x="691.48" y="140.14" width="76.72" height="68.57"/><rect class="cls-5" x="768.2" y="140.14" width="76.72" height="68.57"/><rect class="cls-5" x="844.92" y="140.14" width="76.72" height="68.57"/><rect class="cls-5" x="921.64" y="140.14" width="76.72" height="68.57"/><rect class="cls-5" x="998.36" y="140.14" width="76.72" height="68.57"/><rect class="cls-5" x="1075.08" y="140.14" width="76.72" height="68.57"/><rect class="cls-5" x="1151.8" y="140.14" width="76.72" height="68.57"/><rect class="cls-5" x="1228.52" y="140.14" width="76.72" height="68.57"/><rect class="cls-5" x="1305.24" y="140.14" width="76.72" height="68.57"/><rect class="cls-5" x="1381.96" y="140.14" width="76.72" height="68.57"/><rect class="cls-5" x="1458.68" y="140.14" width="76.72" height="68.57"/><rect class="cls-5" x="1535.4" y="140.14" width="76.72" height="68.57"/><rect class="cls-5" x="1612.12" y="140.14" width="76.72" height="68.57"/><rect class="cls-5" x="1688.84" y="140.14" width="76.72" height="68.57"/><rect class="cls-5" x="1765.56" y="140.14" width="76.72" height="68.57"/><rect class="cls-5" x="1842.28" y="140.14" width="76.72" height="68.57"/><rect class="cls-5" x="1" y="208.71" width="76.72" height="68.57"/><rect class="cls-5" x="77.72" y="208.71" width="76.72" height="68.57"/><rect class="cls-5" x="154.44" y="208.71" width="76.72" height="68.57"/><rect class="cls-5" x="231.16" y="208.71" width="76.72" height="68.57"/><rect class="cls-5" x="307.88" y="208.71" width="76.72" height="68.57"/><rect class="cls-5" x="384.6" y="208.71" width="76.72" height="68.57"/><rect class="cls-5" x="461.32" y="208.71" width="76.72" height="68.57"/><rect class="cls-5" x="538.04" y="208.71" width="76.72" height="68.57"/><rect class="cls-5" x="614.76" y="208.71" width="76.72" height="68.57"/><rect class="cls-5" x="691.48" y="208.71" width="76.72" height="68.57"/><rect class="cls-5" x="768.2" y="208.71" width="76.72" height="68.57"/><rect class="cls-5" x="844.92" y="208.71" width="76.72" height="68.57"/><rect class="cls-5" x="921.64" y="208.71" width="76.72" height="68.57"/><rect class="cls-5" x="998.36" y="208.71" width="76.72" height="68.57"/><rect class="cls-5" x="1075.08" y="208.71" width="76.72" height="68.57"/><rect class="cls-5" x="1151.8" y="208.71" width="76.72" height="68.57"/><rect class="cls-5" x="1228.52" y="208.71" width="76.72" height="68.57"/><rect class="cls-5" x="1305.24" y="208.71" width="76.72" height="68.57"/><rect class="cls-5" x="1381.96" y="208.71" width="76.72" height="68.57"/><rect class="cls-5" x="1458.68" y="208.71" width="76.72" height="68.57"/><rect class="cls-5" x="1535.4" y="208.71" width="76.72" height="68.57"/><rect class="cls-5" x="1612.12" y="208.71" width="76.72" height="68.57"/><rect class="cls-5" x="1688.84" y="208.71" width="76.72" height="68.57"/><rect class="cls-5" x="1765.56" y="208.71" width="76.72" height="68.57"/><rect class="cls-5" x="1842.28" y="208.71" width="76.72" height="68.57"/><rect class="cls-5" x="1" y="277.29" width="76.72" height="68.57"/><rect class="cls-5" x="77.72" y="277.29" width="76.72" height="68.57"/><rect class="cls-5" x="154.44" y="277.29" width="76.72" height="68.57"/><rect class="cls-5" x="231.16" y="277.29" width="76.72" height="68.57"/><rect class="cls-5" x="307.88" y="277.29" width="76.72" height="68.57"/><rect class="cls-5" x="384.6" y="277.29" width="76.72" height="68.57"/><rect class="cls-5" x="461.32" y="277.29" width="76.72" height="68.57"/><rect class="cls-5" x="538.04" y="277.29" width="76.72" height="68.57"/><rect class="cls-5" x="614.76" y="277.29" width="76.72" height="68.57"/><rect class="cls-5" x="691.48" y="277.29" width="76.72" height="68.57"/><rect class="cls-5" x="768.2" y="277.29" width="76.72" height="68.57"/><rect class="cls-5" x="844.92" y="277.29" width="76.72" height="68.57"/><rect class="cls-5" x="921.64" y="277.29" width="76.72" height="68.57"/><rect class="cls-5" x="998.36" y="277.29" width="76.72" height="68.57"/><rect class="cls-5" x="1075.08" y="277.29" width="76.72" height="68.57"/><rect class="cls-5" x="1151.8" y="277.29" width="76.72" height="68.57"/><rect class="cls-5" x="1228.52" y="277.29" width="76.72" height="68.57"/><rect class="cls-5" x="1305.24" y="277.29" width="76.72" height="68.57"/><rect class="cls-5" x="1381.96" y="277.29" width="76.72" height="68.57"/><rect class="cls-5" x="1458.68" y="277.29" width="76.72" height="68.57"/><rect class="cls-5" x="1535.4" y="277.29" width="76.72" height="68.57"/><rect class="cls-5" x="1612.12" y="277.29" width="76.72" height="68.57"/><rect class="cls-5" x="1688.84" y="277.29" width="76.72" height="68.57"/><rect class="cls-5" x="1765.56" y="277.29" width="76.72" height="68.57"/><rect class="cls-5" x="1842.28" y="277.29" width="76.72" height="68.57"/><rect class="cls-5" x="1" y="345.86" width="76.72" height="68.57"/><rect class="cls-5" x="77.72" y="345.86" width="76.72" height="68.57"/><rect class="cls-5" x="154.44" y="345.86" width="76.72" height="68.57"/><rect class="cls-5" x="231.16" y="345.86" width="76.72" height="68.57"/><rect class="cls-5" x="307.88" y="345.86" width="76.72" height="68.57"/><rect class="cls-5" x="384.6" y="345.86" width="76.72" height="68.57"/><rect class="cls-5" x="461.32" y="345.86" width="76.72" height="68.57"/><rect class="cls-5" x="538.04" y="345.86" width="76.72" height="68.57"/><rect class="cls-5" x="614.76" y="345.86" width="76.72" height="68.57"/><rect class="cls-5" x="691.48" y="345.86" width="76.72" height="68.57"/><rect class="cls-5" x="768.2" y="345.86" width="76.72" height="68.57"/><rect class="cls-5" x="844.92" y="345.86" width="76.72" height="68.57"/><rect class="cls-5" x="921.64" y="345.86" width="76.72" height="68.57"/><rect class="cls-5" x="998.36" y="345.86" width="76.72" height="68.57"/><rect class="cls-5" x="1075.08" y="345.86" width="76.72" height="68.57"/><rect class="cls-5" x="1151.8" y="345.86" width="76.72" height="68.57"/><rect class="cls-5" x="1228.52" y="345.86" width="76.72" height="68.57"/><rect class="cls-5" x="1305.24" y="345.86" width="76.72" height="68.57"/><rect class="cls-5" x="1381.96" y="345.86" width="76.72" height="68.57"/><rect class="cls-5" x="1458.68" y="345.86" width="76.72" height="68.57"/><rect class="cls-5" x="1535.4" y="345.86" width="76.72" height="68.57"/><rect class="cls-5" x="1612.12" y="345.86" width="76.72" height="68.57"/><rect class="cls-5" x="1688.84" y="345.86" width="76.72" height="68.57"/><rect class="cls-5" x="1765.56" y="345.86" width="76.72" height="68.57"/><rect class="cls-5" x="1842.28" y="345.86" width="76.72" height="68.57"/><rect class="cls-5" x="1" y="414.43" width="76.72" height="68.57"/><rect class="cls-5" x="77.72" y="414.43" width="76.72" height="68.57"/><rect class="cls-5" x="154.44" y="414.43" width="76.72" height="68.57"/><rect class="cls-5" x="231.16" y="414.43" width="76.72" height="68.57"/><rect class="cls-5" x="307.88" y="414.43" width="76.72" height="68.57"/><rect class="cls-5" x="384.6" y="414.43" width="76.72" height="68.57"/><rect class="cls-5" x="461.32" y="414.43" width="76.72" height="68.57"/><rect class="cls-5" x="538.04" y="414.43" width="76.72" height="68.57"/><rect class="cls-5" x="614.76" y="414.43" width="76.72" height="68.57"/><rect class="cls-5" x="691.48" y="414.43" width="76.72" height="68.57"/><rect class="cls-5" x="768.2" y="414.43" width="76.72" height="68.57"/><rect class="cls-5" x="844.92" y="414.43" width="76.72" height="68.57"/><rect class="cls-5" x="921.64" y="414.43" width="76.72" height="68.57"/><rect class="cls-5" x="998.36" y="414.43" width="76.72" height="68.57"/><rect class="cls-5" x="1075.08" y="414.43" width="76.72" height="68.57"/><rect class="cls-5" x="1151.8" y="414.43" width="76.72" height="68.57"/><rect class="cls-5" x="1228.52" y="414.43" width="76.72" height="68.57"/><rect class="cls-5" x="1305.24" y="414.43" width="76.72" height="68.57"/><rect class="cls-5" x="1381.96" y="414.43" width="76.72" height="68.57"/><rect class="cls-5" x="1458.68" y="414.43" width="76.72" height="68.57"/><rect class="cls-5" x="1535.4" y="414.43" width="76.72" height="68.57"/><rect class="cls-5" x="1612.12" y="414.43" width="76.72" height="68.57"/><rect class="cls-5" x="1688.84" y="414.43" width="76.72" height="68.57"/><rect class="cls-5" x="1765.56" y="414.43" width="76.72" height="68.57"/><rect class="cls-5" x="1842.28" y="414.43" width="76.72" height="68.57"/></g><path class="cls-6" d="M838.13,475.13c34.88-31.05,86.11-45.46,136-51.53s100.53-5,150.41-11.36c97-12.31,189.38-53.34,256.81-114,30.85-27.77,58.16-60.48,99-76.7,75.53-30,165.85,7.67,245.26-13.6,50.16-13.43,88.12-48.29,134.51-69.52,42.83-19.59,93.12-27.1,140.53-21,21.53,2.78,44.21,9.4,55.26,24.87,7.23,10.12,8.35,22.51,9.29,34.41l18.72,236.49c2.81,35.53,4.48,74.5-21.19,103.71-18,20.42-46.4,32.4-74.37,42-133,45.54-278.57,54.23-420.7,53.33s-284.26-10.78-426.24,0c-90.59,6.85-185.1,21.76-273.14-.8C793.54,592.21,782.57,524.6,838.13,475.13Z"/><path class="cls-6" d="M947,5.4c-28.79,36-74.25,54.63-119.34,64.09S736.09,80.66,691.06,90.4c-87.55,18.93-168,69.07-223.61,139.31-25.43,32.14-47.13,69.51-82.87,89.57-66.13,37.1-152.66.93-223.22,28.69-44.58,17.54-75.8,57.85-116.13,83.7A202.32,202.32,0,0,1-81.34,462.56c-20-1.83-41.44-7.8-53.13-24.12-7.65-10.68-9.92-24.18-12-37.15q-20.58-129-41.15-257.94c-6.18-38.75-11.67-81.33,8.87-114.76,14.37-23.38,39.2-38.1,63.85-50.16C2.26-78.93,134.71-96.64,265-103.65s261.42-4.19,390.35-23.95c82.26-12.6,167.3-34.25,250.21-14.5C975.93-125.32,992.83-51.89,947,5.4Z"/><circle class="cls-7" cx="1826.71" cy="83.55" r="7.13"/><circle class="cls-7" cx="1854.43" cy="83.55" r="7.13"/><circle class="cls-7" cx="1882.14" cy="83.55" r="7.13"/><circle class="cls-7" cx="1826.71" cy="59" r="7.13"/><circle class="cls-7" cx="1854.43" cy="59" r="7.13"/><circle class="cls-7" cx="1882.14" cy="59" r="7.13"/><path class="cls-7" d="M1833.84,34.45a7.13,7.13,0,1,1-7.13-7.13A7.13,7.13,0,0,1,1833.84,34.45Z"/><path class="cls-7" d="M1861.55,34.45a7.13,7.13,0,1,1-7.12-7.13A7.13,7.13,0,0,1,1861.55,34.45Z"/><path class="cls-7" d="M1889.27,34.45a7.13,7.13,0,1,1-7.13-7.13A7.13,7.13,0,0,1,1889.27,34.45Z"/><path class="cls-7" d="M51.28,443.76a7.94,7.94,0,1,1-7.93-7.93A7.94,7.94,0,0,1,51.28,443.76Z"/><circle class="cls-7" cx="74.21" cy="443.76" r="7.94" transform="translate(-292.05 182.45) rotate(-45)"/><circle class="cls-7" cx="105.07" cy="443.76" r="7.94" transform="translate(-350.96 444.06) rotate(-76.72)"/><path class="cls-7" d="M51.28,416.43a7.94,7.94,0,1,1-7.93-7.94A7.93,7.93,0,0,1,51.28,416.43Z"/><circle class="cls-7" cx="74.21" cy="416.43" r="7.94" transform="translate(-272.72 174.44) rotate(-45)"/><circle class="cls-7" cx="105.07" cy="416.43" r="7.94" transform="translate(-324.36 423.01) rotate(-76.72)"/><path class="cls-7" d="M51.28,389.1a7.94,7.94,0,1,1-7.93-7.94A7.93,7.93,0,0,1,51.28,389.1Z"/><circle class="cls-7" cx="74.21" cy="389.1" r="7.94" transform="translate(-321.53 371.92) rotate(-76.72)"/><circle class="cls-7" cx="105.07" cy="389.1" r="7.94" transform="translate(-244.36 188.26) rotate(-45)"/><path class="cls-8" d="M371.84,376.66c17.4,0,17.4,14,34.79,14s17.4-14,34.8-14,17.4,14,34.8,14,17.4-14,34.81-14,17.4,14,34.8,14"/><polygon class="cls-9" points="589.72 123.03 609.86 102.14 583.84 97.21 589.72 123.03"/><polygon class="cls-9" points="1223.86 411.29 1249.41 425.04 1247.13 398.65 1223.86 411.29"/><path class="cls-8" d="M1339.66,101.09a38.71,38.71,0,0,1,6,.44"/><path class="cls-10" d="M1357.3,105.93c6.62,4,11.64,9.16,24.33,9.16,21,0,21-14,42-14s21,14,42,14,21-14,42-14c16,0,19.79,8.1,29.94,12"/><path class="cls-8" d="M1543.57,114.66a38.78,38.78,0,0,0,6,.43"/><path class="cls-9" d="M250.94,122.4l-.62,3.8-1.25,7.64-.34,2.11L246,152.89l-1.6,9.75-.27,1.69L242.84,172l-.34,2.11-.91,5.51-.34,2.1-.28,1.71-3.15,19.24L342,139.83,253,110Zm39,23.16-22.72,13.71,3.3-20.21Z"/><path class="cls-11" d="M256.06,115.14,254.77,123l-.35,2.12-.27,1.69L253.8,129l-.28,1.69-.35,2.12-.27,1.7-.35,2.12-.27,1.69-.35,2.11-.28,1.7-.35,2.12-.27,1.7-.35,2.11-.27,1.69-.35,2.13-.28,1.69-.34,2.11-.28,1.7-.35,2.11-.27,1.7-.35,2.12-.28,1.69-.35,2.12-.27,1.69-.35,2.13-.28,1.68-.34,2.12-.28,1.69-.34,2.12-.28,1.7-.35,2.12-.28,1.69-.34,2.12L243,195l89.77-54.14ZM262,166.92l5.4-33,31.69,10.61Z"/><polygon class="cls-12" points="267.39 133.94 262 166.92 280.54 155.73 287.89 167.91 243 194.98 244.44 186.13 244.79 184.01 245.07 182.32 245.42 180.2 245.7 178.5 246.04 176.38 246.32 174.69 246.66 172.57 246.94 170.89 247.29 168.76 247.56 167.07 247.91 164.95 248.19 163.26 248.54 161.14 248.81 159.44 249.16 157.33 249.44 155.63 249.78 153.52 250.06 151.83 250.41 149.7 250.68 148.01 251.03 145.9 251.31 144.2 251.65 142.08 251.93 140.38 252.28 138.26 252.55 136.58 252.9 134.46 253.18 132.76 253.52 130.64 253.8 128.95 254.15 126.83 254.42 125.14 254.77 123.02 256.06 115.14 267.39 133.94"/><path class="cls-13" d="M259.66,123.91l-4.89-.89-.35,2.12,4.87.88C260.3,126.2,260.68,124.09,259.66,123.91Zm-5.51,2.92L253.8,129l4.8.87c1,.18,1.4-1.93.38-2.12Zm-.63,3.81-.35,2.12,5.68,1L260,134c1,.18,1.38-1.93.39-2.12Zm-.62,3.82-.35,2.12c1.56.27,3.13.56,4.68.84,1,.18,1.39-1.93.39-2.11Zm-.62,3.81-.35,2.11,4.62.84c1,.18,1.38-1.93.37-2.11Zm-.63,3.81-.35,2.12,5.49,1c.39.06.77.14,1.16.21,1,.18,1.4-1.93.38-2.11ZM251,145.9l-.35,2.11,4.49.81c1,.19,1.4-1.92.38-2.11Zm-.62,3.8-.35,2.13,4.42.79c1,.18,1.4-1.93.39-2.11Zm-.63,3.82-.34,2.11,5.29,1,1.17.21c1,.18,1.38-1.93.38-2.11Zm-.62,3.81-.35,2.11,4.31.78c1,.19,1.39-1.92.37-2.1Zm-.62,3.81-.35,2.12,4.24.76c1,.19,1.38-1.92.38-2.11Zm-.63,3.81-.35,2.12,5.12.93,1.15.2c1,.19,1.4-1.92.38-2.11Zm-.62,3.81-.35,2.13,4.12.73c1,.18,1.39-1.92.37-2.1Zm-.63,3.81-.34,2.12,4,.74c1,.18,1.4-1.93.38-2.12Zm-.62,3.81-.34,2.12,4.92.9,1.16.2c1,.18,1.39-1.92.38-2.11Zm-.62,3.82-.35,2.12L249,183c1,.18,1.4-1.93.38-2.11Zm-.63,3.81-.34,2.12,3.86.7c1,.18,1.39-1.93.39-2.11Z"/><path class="cls-9" d="M1602.44,318.88c0,.27,0,.53,0,.85a2.62,2.62,0,0,0,0,.28c0,.22,0,.44,0,.68l0,.23.09.59.07.33,0,.21v.05c0,.18.09.35.14.52l.16.47c0,.11.08.22.16.41l0,.12,0,.12c.14.31.29.62.46.92a1.71,1.71,0,0,0,.13.23l.36.56c.08.12.17.23.25.34l.37.46.3.32.42.41.28.25c.17.14.34.28.52.41l.3.21.09.06a7.84,7.84,0,0,0,.85.49l39.24,19.78a7,7,0,0,0,9.29-3.45L1682,293.57a7.35,7.35,0,0,0-.47-7.58,8.62,8.62,0,0,0,.2-1.35,7,7,0,0,0-3.7-6.74l-38.44-19.38c-3.38-1.7-7.61-.17-9.58,3.45-.11.17-.21.36-.31.55l-25.86,51.29h0l-2.26,4.48.92.47Z"/><path class="cls-14" d="M1677.17,288.08l-40.89-20.61-24.88,49.35.08.05a7.32,7.32,0,0,0-.6,1l-1.3,2.57a3.27,3.27,0,0,0,1.11,4.46l38.21,19.26a2.54,2.54,0,0,0,3.22-1.45l2.14-4.26,1.88-3.73,21.77-43.17A2.53,2.53,0,0,0,1677.17,288.08Z"/><path class="cls-9" d="M1676.58,291.19l-25,49.6a2.52,2.52,0,0,1-3.21,1.45l-37.12-18.72a5.71,5.71,0,0,1-2-1.4h0a2.64,2.64,0,0,1-.5-1.11,8,8,0,0,1,0-2.77,18.38,18.38,0,0,1,.71-3l0-.06c.17-.52.35-1,.53-1.54l.18-.48a75.91,75.91,0,0,1,5.88-11.67c1.28-2.18,2.59-4.34,3.83-6.53,3.43-6,6.7-12,9.85-18.27l3.1-6.14c.63-1.28,1-2.86,1.81-4,1.23-1.67,2.75.37,3.93,1,4.49,2.27,17.9,8.41,22.52,10.4l15.44,6.63.28,3.1.16,1.84A3.08,3.08,0,0,1,1676.58,291.19Z"/><path class="cls-15" d="M1676.49,284.56l-15.44-6.63c-4.62-2-18-8.13-22.52-10.4-1.18-.59-2.7-2.63-3.93-1-.86,1.16-1.18,2.74-1.81,4l-3.1,6.14c-3.15,6.23-6.42,12.23-9.85,18.27-1.24,2.19-2.55,4.35-3.83,6.53l-5.88,11.67-.18.48c-.18.5-.36,1-.53,1.54l0,.06a18.38,18.38,0,0,0-.71,3,8,8,0,0,0,0,2.77,2.64,2.64,0,0,0,.5,1.11,5.25,5.25,0,0,1-.11-2.14h0a.9.9,0,0,1,0-.16,6.1,6.1,0,0,1,.6-1.84,6.26,6.26,0,0,1,1.12-1.58.57.57,0,0,1,.11-.11h0c1.44-1.41,2.93-1,4.51-.19l35.22,17.76a2.3,2.3,0,0,0,2,0,3.06,3.06,0,0,0,.57-.34,3.6,3.6,0,0,0,1-1.24,3.18,3.18,0,0,0,.23-.4l22.28-44.17Zm-58.42,31a17.38,17.38,0,0,0-5.14-1.85l.15,0h.12c.13,0,.27,0,.4,0h.18l.34,0,.19,0,.33.05h0l.17,0,.34.1.16.05a3.9,3.9,0,0,1,.47.2l6.18,3.11Z"/><path class="cls-16" d="M1607.83,315.85a4.69,4.69,0,0,0-.21.46h0Z"/><path class="cls-16" d="M1676.77,285.8l-22.56,44.73a3.56,3.56,0,0,1-1,1.27l-37.66-19a4,4,0,0,0-.47-.21l-.16-.05-.34-.09-.17,0h0a1.88,1.88,0,0,0-.33-.05l-.19,0h-.52a2.69,2.69,0,0,0-.4,0h-.11a5.48,5.48,0,0,0-.56.1l-.18,0-.2.05-.07,0-.17.05-.4.16-.06,0-.12.06-.31.16-.17.09c-.13.07-.25.15-.37.23l-.13.09c-.13.09-.27.19-.4.3l-.1.09c-.14.11.19-.69.06-.57l-.05.06c-.12.12-.25.25-.37.39l0,.06a3.94,3.94,0,0,0-.36.45l-.07.1a5.72,5.72,0,0,0-.32.48l-.06.09c-.1.18-.21.36-.3.54l25.86-51.28a2.81,2.81,0,0,1,3.59-1.63l38.44,19.38a2.49,2.49,0,0,1,1.22,2.44A3.78,3.78,0,0,1,1676.77,285.8Z"/><polygon class="cls-17" points="1674.06 281.47 1609.63 312.28 1614.63 302.35 1668.1 278.47 1674.06 281.47"/><path class="cls-17" d="M1676.55,286.17l-2.08,4.13-54.83,24.75-1.85-.79c-.63-.27-1.24-.57-1.87-.85l61-28.66A3.44,3.44,0,0,1,1676.55,286.17Z"/><path class="cls-17" d="M1636.29,263.38a3.31,3.31,0,0,1,.41-.64,3,3,0,0,0-3,1.82l-25.86,51.28c.1-.18.2-.36.31-.54l0-.09a5.72,5.72,0,0,1,.32-.48l.08-.1a5.37,5.37,0,0,1,.35-.45l.06-.07c.12-.13.24-.26.37-.38l.05-.06c.13-.13-.2.68-.07.56a.39.39,0,0,0,.1-.08l.41-.31.12-.08.37-.23.17-.09.31-.17.12-.06.07,0,.19-.08Z"/><path class="cls-18" d="M1612,312.5l0,.05-.37.39,0,0h0l.08,0,.19-.05.1,0C1612,312.68,1612.09,312.42,1612,312.5Z"/><path class="cls-19" d="M1624.28,317.72l-9-4.53a5,5,0,0,0-.48-.21l-.15-.05-.35-.1-.16,0h0l-.33-.06-.18,0h-.52l-.41,0h-.11a3.53,3.53,0,0,0-.55.1l-.19,0-.19.05-.08,0-.17,0-.39.16-.07,0-.12.06-.31.17-.17.09-.37.23-.12.08-.41.31a.39.39,0,0,1-.1.08c-.13.12.2-.69.07-.56l-.05.06c-.13.12-.25.25-.37.38l-.06.07a5.37,5.37,0,0,0-.35.45l-.08.1a5.72,5.72,0,0,0-.32.48l0,.09c-.11.18-.21.36-.31.54l1.17-2.32a4.18,4.18,0,0,1,6-2Z"/><path class="cls-15" d="M1653.71,331.48l-.18.35a3.65,3.65,0,0,1-1,1.27,3.3,3.3,0,0,1-.57.34,2.27,2.27,0,0,1-2,0l-35.21-17.76c-1.59-.79-3.08-1.21-4.52.19h0l-.11.12a6.27,6.27,0,0,0-1.12,1.57,6.06,6.06,0,0,0-.28.65,18.38,18.38,0,0,1,.71-3l0-.06c.17-.52.35-1,.53-1.54a3.28,3.28,0,0,1,1.44-.38c2.19-.06,4,1.07,5.93,1.88l4.36,1.87c3.82,1.64,16.34,7.67,20.16,9.31l9.54,4.1c.66.28,1.36.53,2,.86Z"/><path class="cls-16" d="M1610.56,315.08a6.08,6.08,0,0,0-1.12,1.58,6.42,6.42,0,0,0-.61,1.84c0,.05,0,.1,0,.16h0a4.36,4.36,0,0,0,2.06,4.66l37.43,18.87-.66,1.31-38-19.15a4.83,4.83,0,0,1-.45-.26l-.14-.1-.28-.21-.13-.12-.24-.24a.86.86,0,0,1-.13-.14l-.22-.26-.1-.15a4,4,0,0,1-.22-.34l-.06-.1c-.09-.16-.17-.33-.25-.5a1.34,1.34,0,0,0-.07-.18l-.07-.18,0-.08a.84.84,0,0,0,0-.17c0-.14-.08-.27-.11-.41a.14.14,0,0,0,0-.07c0-.05,0-.09,0-.13l-.06-.35c0-.06,0-.12,0-.19a3.15,3.15,0,0,1,0-.44.71.71,0,0,1,0-.14c0-.17,0-.34,0-.51V319c0-.18,0-.36,0-.54l0-.08c0-.17.06-.35.09-.52s0-.06,0-.09a5.62,5.62,0,0,1,.15-.55l0-.12c.06-.18.13-.36.2-.54l0-.1c.08-.19.16-.38.26-.58.94-1.86,2.14-3.41,4-3.47,2.19-.05,4,1.07,5.93,1.89l4.36,1.87c3.82,1.64,16.33,7.66,20.15,9.3l9.54,4.1c.67.29,1.36.53,2,.86l.32.16-.17.35a3.58,3.58,0,0,1-1,1.27,3.42,3.42,0,0,1-.57.34,2.27,2.27,0,0,1-2,0l-35.22-17.75c-1.58-.8-3.07-1.22-4.51.19h0Z"/><path class="cls-20" d="M-64.58,276.83c57.2,12.83,122-12.61,151.44-59.44,18.35-29.2,23.35-64.09,40.68-93.81,18.87-32.36,52.5-57.17,91-67.12,35.21-9.1,72.56-6,109.13-5.3s75.11-1.5,106-19.44,54.79-58.32,38.59-88.43H-72.23q3.54,40.13,7.07,80.27Z"/><path class="cls-8" d="M356.31-26.28c21,35.49-.64,84.74-36.83,104.53S238.6,94.46,199.09,82.62C163.45,72,120.62,56.4,92.73,81c-21.42,18.9-21.24,52.48-13.79,80.06s20.5,54.54,19,83.06c-2,39.41-32.25,72.92-67.69,90.28S-45.35,356-84.61,360"/><path class="cls-20" d="M1981.85,193.45c-57.2-12.83-122,12.61-151.45,59.44-18.35,29.21-23.34,64.1-40.67,93.82-18.87,32.35-52.51,57.17-91,67.11-35.21,9.1-72.56,6-109.13,5.31s-75.11,1.5-106,19.44S1428.8,496.89,1445,527h544.49q-3.52-40.14-7.06-80.27Z"/><path class="cls-21" d="M1490,509c1-23.62,16.18-45.1,36-58s43.68-18.22,67.25-19.93c51.61-3.75,103.38,8.53,155,4.94s107.9-29.79,121.72-79.66c7.28-26.3,1.46-54.74,7.71-81.31s34.76-52.22,58.82-39.32"/></g></g><g id="TEXTS"><text class="cls-22" transform="translate(122.33 246.52)"><tspan class="cls-23">C</tspan><tspan class="cls-24" x="40.97" y="0">e</tspan><tspan class="cls-25" x="77.04" y="0">r</tspan><tspan x="100.87" y="0">min</tspan><tspan class="cls-26" x="217.73" y="0">k</tspan><tspan class="cls-27" x="252.79" y="0">an mahasis</tspan><tspan class="cls-28" x="586" y="0">w</tspan><tspan x="638.7" y="0">a be</tspan><tspan class="cls-29" x="765.71" y="0">r</tspan><tspan class="cls-24" x="788.53" y="0">eti</tspan><tspan class="cls-30" x="865.28" y="0">k</tspan><tspan x="900.35" y="0">a dengan be</tspan><tspan class="cls-31" x="1274.17" y="0">r</tspan><tspan x="1298" y="0">bahasa </tspan><tspan class="cls-28" x="1526.81" y="0">y</tspan><tspan x="1560.43" y="0">ang</tspan><tspan x="608.46" y="86.4">baik dan bena</tspan><tspan class="cls-32" x="1032.25" y="86.4">r</tspan><tspan class="cls-33" x="1051.98" y="86.4">.</tspan></text><text class="cls-34" transform="translate(916.72 97.66)">HI<tspan class="cls-35" x="32.35" y="0">M</tspan><tspan x="61.18" y="0">ADITI</tspan></text></g></svg>